<?xml version="1.0" encoding="utf-8"?>
<!-- Generator: Adobe Illustrator 26.3.1, SVG Export Plug-In . SVG Version: 6.00 Build 0)  -->
<svg version="1.1" id="Capa_1" xmlns="http://www.w3.org/2000/svg" xmlns:xlink="http://www.w3.org/1999/xlink" x="0px" y="0px"
	 viewBox="0 0 77.5 37.1" style="enable-background:new 0 0 77.5 37.1;" xml:space="preserve">
<style type="text/css">
	.st0{fill:#707070;}
	.st1{fill:#41BFFF;}
	.st2{fill:#FFFFFF;stroke:#FFFFFF;stroke-width:1.5;stroke-miterlimit:10;}
</style>
<path class="st0" d="M6,1.9h28c1.1,0,2,0.9,2,2v28c0,1.1-0.9,2-2,2H6c-1.1,0-2-0.9-2-2v-28C4,2.8,4.9,1.9,6,1.9z"/>
<path class="st1" d="M46.5,1.9h28c1.1,0,2,0.9,2,2v28c0,1.1-0.9,2-2,2h-28c-1.1,0-2-0.9-2-2v-28C44.5,2.8,45.4,1.9,46.5,1.9z"/>
<path class="st2" d="M68,11.4L58.7,22L53,17.4c-0.3-0.2-0.6-0.2-0.9,0.1c-0.2,0.3-0.2,0.6,0.1,0.9l6.1,4.9c0.1,0.1,0.2,0.1,0.4,0.1
	s0.3-0.1,0.5-0.2l9.8-11c0.2-0.3,0.2-0.6-0.1-0.9C68.7,11.1,68.3,11.1,68,11.4z"/>
<path class="st2" d="M27.5,11.4L18.1,22l-5.7-4.5c-0.3-0.2-0.6-0.2-0.9,0.1c-0.2,0.3-0.2,0.6,0.1,0.9l6.1,4.9
	c0.1,0.1,0.2,0.1,0.4,0.1c0.2,0,0.3-0.1,0.5-0.2l9.8-11c0.2-0.3,0.2-0.6-0.1-0.9C28.1,11.1,27.7,11.1,27.5,11.4z"/>
</svg>
